<svg width="24" height="24" viewBox="0 0 24 24" fill="none" xmlns="http://www.w3.org/2000/svg">
<path fill-rule="evenodd" clip-rule="evenodd" d="M15.7068 5.64805C15.9175 5.15533 16.0344 4.61162 16.0344 4.0402C16.0344 1.80886 14.2525 0 12.0544 0C9.85643 0 8.07456 1.80886 8.07456 4.0402C8.07456 4.61162 8.19142 5.15533 8.4022 5.64805C7.6788 4.63717 6.50506 3.9799 5.18009 3.9799C2.98205 3.9799 1.2002 5.78876 1.2002 8.0201C1.2002 10.0129 2.62151 11.6688 4.49122 12C2.62151 12.3312 1.2002 13.9871 1.2002 15.9799C1.2002 18.2112 2.98205 20.0201 5.18009 20.0201C6.50506 20.0201 7.6788 19.3628 8.4022 18.352C8.19142 18.8447 8.07456 19.3884 8.07456 19.9598C8.07456 22.1911 9.85643 24 12.0544 24C14.2525 24 16.0344 22.1911 16.0344 19.9598C16.0344 19.3884 15.9175 18.8447 15.7068 18.352C16.4301 19.3628 17.6038 20.0201 18.9289 20.0201C21.1269 20.0201 22.9088 18.2112 22.9088 15.9799C22.9088 13.9871 21.4874 12.3312 19.6177 12C21.4874 11.6688 22.9088 10.0129 22.9088 8.0201C22.9088 5.78876 21.1269 3.9799 18.9289 3.9799C17.6038 3.9799 16.4301 4.63717 15.7068 5.64805ZM15.2766 17.5878C15.0658 17.0951 14.949 16.5514 14.949 15.9799C14.949 13.9871 16.3702 12.3312 18.24 12C16.3702 11.6688 14.949 10.0129 14.949 8.0201C14.949 7.44868 15.0658 6.90497 15.2766 6.41225C14.5532 7.42313 13.3795 8.0804 12.0544 8.0804C10.7295 8.0804 9.55576 7.42313 8.83236 6.41225C9.04314 6.90497 9.16 7.44868 9.16 8.0201C9.16 10.0129 7.73868 11.6688 5.86898 12C7.73868 12.3312 9.16 13.9871 9.16 15.9799C9.16 16.5514 9.04314 17.0951 8.83236 17.5878C9.55576 16.5769 10.7295 15.9196 12.0544 15.9196C13.3795 15.9196 14.5532 16.5769 15.2766 17.5878Z" fill="#004643"/>
</svg>
