<svg width="302" height="248" viewBox="0 0 302 248" fill="none" xmlns="http://www.w3.org/2000/svg">
<g clip-path="url(#clip0_6020_1034)">
<path d="M0 16C0 7.16344 7.16344 0 16 0H286C294.837 0 302 7.16344 302 16V232C302 240.837 294.837 248 286 248H16C7.16344 248 0 240.837 0 232V16Z" fill="white"/>
<path d="M28.344 49H25.704V31.84H32.856C36.648 31.84 38.688 33.616 38.688 36.784C38.688 38.968 37.368 40.552 35.472 40.984V41.032C39.456 41.776 37.992 48.544 38.928 48.832V49H36.096C35.328 48.28 36.96 42.28 32.76 42.28H28.344V49ZM28.344 40H32.28C34.704 40 36.024 38.944 36.024 36.976C36.024 35.128 34.968 34.12 32.328 34.12H28.344V40ZM52.0442 42.616C52.0442 42.952 52.0442 43.312 52.0202 43.504H42.6122C42.6602 45.544 43.8602 47.44 46.2842 47.44C48.4442 47.44 49.2842 46.048 49.5002 45.232H51.9002C51.2522 47.584 49.4522 49.36 46.2362 49.36C42.3482 49.36 40.1882 46.6 40.1882 42.856C40.1882 39.016 42.4922 36.376 46.2362 36.376C49.9562 36.376 52.0442 38.824 52.0442 42.616ZM42.6122 41.656H49.5962C49.5962 39.736 48.2522 38.296 46.1642 38.296C44.1962 38.296 42.7562 39.64 42.6122 41.656ZM59.5119 49H56.8719L52.5039 36.76H55.0239L58.2399 46.576H58.2639L61.4319 36.76H63.8799L59.5119 49ZM67.8947 34.576H65.2307V32.032H67.8947V34.576ZM67.7267 49H65.3747V36.76H67.7267V49ZM81.5989 42.616C81.5989 42.952 81.5989 43.312 81.5749 43.504H72.1669C72.2149 45.544 73.4149 47.44 75.8389 47.44C77.9989 47.44 78.8389 46.048 79.0549 45.232H81.4549C80.8069 47.584 79.0069 49.36 75.7909 49.36C71.9029 49.36 69.7429 46.6 69.7429 42.856C69.7429 39.016 72.0469 36.376 75.7909 36.376C79.5109 36.376 81.5989 38.824 81.5989 42.616ZM72.1669 41.656H79.1509C79.1509 39.736 77.8069 38.296 75.7189 38.296C73.7509 38.296 72.3109 39.64 72.1669 41.656ZM88.4398 49H86.0158L82.2238 36.76H84.7678L87.3598 46.24H87.4078L89.9518 36.76H92.3278L94.8718 46.24H94.9198L97.5358 36.76H99.9838L96.1918 49H93.7678L91.1278 39.568H91.0798L88.4398 49ZM106.035 49.336C102.315 49.336 100.467 47.416 100.395 44.92H102.771C102.867 46.336 103.731 47.44 106.011 47.44C108.075 47.44 108.627 46.528 108.627 45.64C108.627 44.104 106.995 43.936 105.411 43.6C103.275 43.096 100.827 42.472 100.827 39.928C100.827 37.816 102.531 36.4 105.483 36.4C108.843 36.4 110.451 38.2 110.619 40.312H108.243C108.075 39.376 107.571 38.296 105.531 38.296C103.947 38.296 103.275 38.92 103.275 39.832C103.275 41.104 104.643 41.224 106.371 41.608C108.627 42.136 111.075 42.784 111.075 45.52C111.075 47.896 109.251 49.336 106.035 49.336Z" fill="#011716"/>
<rect x="172" y="24" width="106" height="32" rx="8" fill="#004643"/>
<path d="M188.599 44L186.979 41.1H185.919V44H184.929V36.91H187.599C188.253 36.91 188.776 37.1133 189.169 37.52C189.569 37.92 189.769 38.42 189.769 39.02C189.769 39.5333 189.616 39.9733 189.309 40.34C189.003 40.7 188.583 40.93 188.049 41.03L189.739 44H188.599ZM185.919 40.22H187.419C187.819 40.22 188.143 40.1133 188.389 39.9C188.636 39.68 188.759 39.3867 188.759 39.02C188.759 38.6467 188.636 38.35 188.389 38.13C188.143 37.9033 187.819 37.79 187.419 37.79H185.919V40.22ZM195.631 44H191.321V36.91H195.631V37.82H192.301V40H195.321V40.92H192.301V43.09H195.631V44ZM200.352 44.15C199.386 44.15 198.556 43.8167 197.862 43.15C197.176 42.4833 196.832 41.5833 196.832 40.45C196.832 39.69 197.006 39.0233 197.352 38.45C197.699 37.8767 198.136 37.4533 198.662 37.18C199.189 36.9 199.752 36.76 200.352 36.76C201.152 36.76 201.826 36.9633 202.372 37.37C202.926 37.77 203.292 38.3167 203.472 39.01L202.562 39.33C202.429 38.7967 202.172 38.3867 201.792 38.1C201.412 37.8067 200.932 37.66 200.352 37.66C199.659 37.66 199.066 37.9067 198.572 38.4C198.079 38.8867 197.832 39.57 197.832 40.45C197.832 41.33 198.079 42.0167 198.572 42.51C199.066 43.0033 199.659 43.25 200.352 43.25C200.932 43.25 201.416 43.0967 201.802 42.79C202.189 42.4767 202.459 42.0633 202.612 41.55L203.482 41.87C203.289 42.5567 202.916 43.11 202.362 43.53C201.816 43.9433 201.146 44.15 200.352 44.15ZM206.185 38.4C205.685 38.8867 205.435 39.57 205.435 40.45C205.435 41.33 205.685 42.0167 206.185 42.51C206.685 43.0033 207.288 43.25 207.995 43.25C208.701 43.25 209.305 43.0033 209.805 42.51C210.305 42.0167 210.555 41.33 210.555 40.45C210.555 39.57 210.305 38.8867 209.805 38.4C209.305 37.9067 208.701 37.66 207.995 37.66C207.288 37.66 206.685 37.9067 206.185 38.4ZM204.435 40.45C204.435 39.8767 204.535 39.3533 204.735 38.88C204.941 38.4067 205.211 38.02 205.545 37.72C205.885 37.4133 206.265 37.1767 206.685 37.01C207.105 36.8433 207.541 36.76 207.995 36.76C208.448 36.76 208.885 36.8433 209.305 37.01C209.725 37.1767 210.101 37.4133 210.435 37.72C210.775 38.02 211.045 38.4067 211.245 38.88C211.451 39.3533 211.555 39.8767 211.555 40.45C211.555 41.21 211.378 41.8767 211.025 42.45C210.678 43.0233 210.238 43.45 209.705 43.73C209.171 44.01 208.601 44.15 207.995 44.15C207.388 44.15 206.818 44.01 206.285 43.73C205.751 43.45 205.308 43.0233 204.955 42.45C204.608 41.8767 204.435 41.21 204.435 40.45ZM220.762 44H219.792V38.48L217.372 44H216.472L214.072 38.48V44H213.102V36.91H214.432L216.932 42.68L219.452 36.91H220.762V44ZM230.425 44H229.455V38.48L227.035 44H226.135L223.735 38.48V44H222.765V36.91H224.095L226.595 42.68L229.115 36.91H230.425V44ZM236.738 44H232.428V36.91H236.738V37.82H233.408V40H236.428V40.92H233.408V43.09H236.738V44ZM244.269 44H243.249L239.419 38.22V44H238.439V36.91H239.749L243.289 42.35V36.91H244.269V44ZM247.246 43.13H248.696C249.389 43.13 249.962 42.9 250.416 42.44C250.876 41.98 251.106 41.3233 251.106 40.47C251.106 39.61 250.879 38.9467 250.426 38.48C249.979 38.0133 249.409 37.78 248.716 37.78H247.246V43.13ZM248.726 44H246.266V36.91H248.746C249.699 36.91 250.499 37.2267 251.146 37.86C251.792 38.4867 252.116 39.3567 252.116 40.47C252.116 41.5767 251.789 42.4433 251.136 43.07C250.482 43.69 249.679 44 248.726 44ZM257.973 44H253.663V36.91H257.973V37.82H254.643V40H257.663V40.92H254.643V43.09H257.973V44ZM260.653 43.13H262.103C262.797 43.13 263.37 42.9 263.823 42.44C264.283 41.98 264.513 41.3233 264.513 40.47C264.513 39.61 264.287 38.9467 263.833 38.48C263.387 38.0133 262.817 37.78 262.123 37.78H260.653V43.13ZM262.133 44H259.673V36.91H262.153C263.107 36.91 263.907 37.2267 264.553 37.86C265.2 38.4867 265.523 39.3567 265.523 40.47C265.523 41.5767 265.197 42.4433 264.543 43.07C263.89 43.69 263.087 44 262.133 44Z" fill="white"/>
<rect x="24" y="176" width="254" height="48" rx="24" fill="#004643" fill-opacity="0.1"/>
<path d="M72.8329 206.252C69.5749 206.252 67.2889 204.56 67.1449 201.662H69.1969C69.3409 203.39 70.3669 204.56 72.7789 204.56C74.8489 204.56 75.4789 203.66 75.4789 202.49C75.4789 200.852 74.2189 200.618 71.8789 200.024C69.8629 199.484 67.6489 198.836 67.6489 196.388C67.6489 194.156 69.3769 192.878 72.1489 192.878C75.0829 192.878 76.9909 194.372 77.1889 196.964H75.1369C74.9209 195.416 74.0389 194.57 72.1669 194.57C70.5469 194.57 69.7189 195.164 69.7189 196.28C69.7189 197.72 71.0689 198.026 72.7249 198.44C75.2089 199.07 77.5489 199.664 77.5489 202.382C77.5489 204.596 76.0549 206.252 72.8329 206.252ZM87.4648 201.212C87.4648 201.464 87.4648 201.734 87.4468 201.878H80.3908C80.4268 203.408 81.3268 204.83 83.1448 204.83C84.7648 204.83 85.3948 203.786 85.5568 203.174H87.3568C86.8708 204.938 85.5208 206.27 83.1088 206.27C80.1928 206.27 78.5728 204.2 78.5728 201.392C78.5728 198.512 80.3008 196.532 83.1088 196.532C85.8988 196.532 87.4648 198.368 87.4648 201.212ZM80.3908 200.492H85.6288C85.6288 199.052 84.6208 197.972 83.0548 197.972C81.5788 197.972 80.4988 198.98 80.3908 200.492ZM97.3788 201.212C97.3788 201.464 97.3788 201.734 97.3608 201.878H90.3048C90.3408 203.408 91.2408 204.83 93.0588 204.83C94.6788 204.83 95.3088 203.786 95.4708 203.174H97.2708C96.7848 204.938 95.4348 206.27 93.0228 206.27C90.1068 206.27 88.4868 204.2 88.4868 201.392C88.4868 198.512 90.2148 196.532 93.0228 196.532C95.8128 196.532 97.3788 198.368 97.3788 201.212ZM90.3048 200.492H95.5428C95.5428 199.052 94.5348 197.972 92.9688 197.972C91.4928 197.972 90.4128 198.98 90.3048 200.492ZM106.897 196.604C107.221 196.604 107.473 196.622 107.743 196.658V198.35C107.527 198.314 107.365 198.296 107.149 198.296C105.547 198.296 104.395 199.502 104.395 201.248V206H102.631V196.82H104.395V198.566H104.431C104.917 197.414 105.655 196.604 106.897 196.604ZM116.926 201.212C116.926 201.464 116.926 201.734 116.908 201.878H109.852C109.888 203.408 110.788 204.83 112.606 204.83C114.226 204.83 114.856 203.786 115.018 203.174H116.818C116.332 204.938 114.982 206.27 112.57 206.27C109.654 206.27 108.034 204.2 108.034 201.392C108.034 198.512 109.762 196.532 112.57 196.532C115.36 196.532 116.926 198.368 116.926 201.212ZM109.852 200.492H115.09C115.09 199.052 114.082 197.972 112.516 197.972C111.04 197.972 109.96 198.98 109.852 200.492ZM122.448 206.27C119.712 206.27 117.93 204.29 117.93 201.41C117.93 198.53 119.712 196.55 122.43 196.55C124.788 196.55 126.354 198.08 126.57 200.15H124.752C124.662 199.196 124.122 198.008 122.448 198.008C120.486 198.008 119.766 199.682 119.766 201.41C119.766 203.138 120.486 204.794 122.448 204.794C124.14 204.794 124.662 203.642 124.752 202.598H126.57C126.444 204.704 124.806 206.27 122.448 206.27ZM132.082 206.27C129.22 206.27 127.492 204.29 127.492 201.41C127.492 198.548 129.22 196.532 132.1 196.532C134.944 196.532 136.672 198.53 136.672 201.392C136.672 204.272 134.944 206.27 132.082 206.27ZM132.1 204.812C133.972 204.812 134.836 203.318 134.836 201.41C134.836 199.484 133.972 198.008 132.1 198.008C130.192 198.008 129.328 199.484 129.328 201.41C129.328 203.318 130.192 204.812 132.1 204.812ZM148.164 196.55C150.018 196.55 150.954 197.666 150.954 199.628V206H149.19V200.114C149.19 198.89 148.938 198.062 147.588 198.062C146.274 198.062 145.446 198.98 145.446 200.366V206H143.682V200.114C143.682 198.89 143.43 198.062 142.08 198.062C140.766 198.062 139.938 198.98 139.938 200.366V206H138.174V196.82H139.938V197.972H139.974C140.46 197.27 141.306 196.55 142.692 196.55C143.97 196.55 144.762 197.126 145.122 198.152H145.158C145.824 197.27 146.76 196.55 148.164 196.55ZM162.876 196.55C164.73 196.55 165.666 197.666 165.666 199.628V206H163.902V200.114C163.902 198.89 163.65 198.062 162.3 198.062C160.986 198.062 160.158 198.98 160.158 200.366V206H158.394V200.114C158.394 198.89 158.142 198.062 156.792 198.062C155.478 198.062 154.65 198.98 154.65 200.366V206H152.886V196.82H154.65V197.972H154.686C155.172 197.27 156.018 196.55 157.404 196.55C158.682 196.55 159.474 197.126 159.834 198.152H159.87C160.536 197.27 161.472 196.55 162.876 196.55ZM176.023 201.212C176.023 201.464 176.023 201.734 176.005 201.878H168.949C168.985 203.408 169.885 204.83 171.703 204.83C173.323 204.83 173.953 203.786 174.115 203.174H175.915C175.429 204.938 174.079 206.27 171.667 206.27C168.751 206.27 167.131 204.2 167.131 201.392C167.131 198.512 168.859 196.532 171.667 196.532C174.457 196.532 176.023 198.368 176.023 201.212ZM168.949 200.492H174.187C174.187 199.052 173.179 197.972 171.613 197.972C170.137 197.972 169.057 198.98 168.949 200.492ZM182.337 196.55C184.029 196.55 185.397 197.522 185.397 199.628V206H183.633V200.114C183.633 198.89 183.093 198.062 181.761 198.062C180.249 198.062 179.277 198.98 179.277 200.366V206H177.513V196.82H179.277V197.972H179.313C179.799 197.27 180.753 196.55 182.337 196.55ZM193.82 197.936V193.13H195.584V206H193.82V204.92H193.784C193.28 205.568 192.398 206.252 190.958 206.252C188.618 206.252 186.836 204.434 186.836 201.41C186.836 198.386 188.618 196.55 190.958 196.55C192.398 196.55 193.28 197.216 193.784 197.936H193.82ZM191.246 204.794C192.83 204.794 193.802 203.48 193.802 201.41C193.802 199.322 192.83 198.026 191.246 198.026C189.518 198.026 188.672 199.61 188.672 201.41C188.672 203.21 189.518 204.794 191.246 204.794ZM200.108 206.252C198.272 206.252 197.102 205.19 197.102 203.624C197.102 201.572 198.65 200.96 200.936 200.528C202.376 200.258 203.258 200.078 203.258 199.178C203.258 198.512 202.862 197.954 201.512 197.954C199.91 197.954 199.424 198.458 199.334 199.682H197.534C197.624 197.918 198.776 196.532 201.584 196.532C203.474 196.532 204.986 197.324 204.986 199.7V203.912C204.986 204.578 205.076 204.92 205.418 204.92C205.472 204.92 205.526 204.92 205.634 204.902V205.982C205.328 206.054 205.022 206.09 204.734 206.09C203.852 206.09 203.384 205.748 203.276 204.704H203.24C202.646 205.658 201.602 206.252 200.108 206.252ZM200.504 204.83C202.088 204.83 203.258 204.02 203.258 202.418V201.104C202.97 201.374 202.178 201.572 201.242 201.77C199.622 202.094 198.938 202.544 198.938 203.498C198.938 204.362 199.406 204.83 200.504 204.83ZM210.341 204.65C210.647 204.65 210.791 204.632 211.097 204.578V206C210.647 206.09 210.359 206.108 209.981 206.108C208.469 206.108 207.551 205.532 207.551 203.408V198.278H206.219V196.82H207.551V193.868H209.315V196.82H211.079V198.278H209.315V203.462C209.315 204.434 209.585 204.65 210.341 204.65ZM214.437 195.182H212.439V193.274H214.437V195.182ZM214.311 206H212.547V196.82H214.311V206ZM220.395 206.27C217.533 206.27 215.805 204.29 215.805 201.41C215.805 198.548 217.533 196.532 220.413 196.532C223.257 196.532 224.985 198.53 224.985 201.392C224.985 204.272 223.257 206.27 220.395 206.27ZM220.413 204.812C222.285 204.812 223.149 203.318 223.149 201.41C223.149 199.484 222.285 198.008 220.413 198.008C218.505 198.008 217.641 199.484 217.641 201.41C217.641 203.318 218.505 204.812 220.413 204.812ZM231.31 196.55C233.002 196.55 234.37 197.522 234.37 199.628V206H232.606V200.114C232.606 198.89 232.066 198.062 230.734 198.062C229.222 198.062 228.25 198.98 228.25 200.366V206H226.486V196.82H228.25V197.972H228.286C228.772 197.27 229.726 196.55 231.31 196.55Z" fill="#011716"/>
<path d="M30.08 114H25.216V102.56H29.776C32.032 102.56 33.392 103.648 33.392 105.44C33.392 106.8 32.608 107.504 31.584 107.856V107.888C32.864 108.128 33.856 109.072 33.856 110.72C33.856 112.88 32.352 114 30.08 114ZM26.384 107.472H30C31.584 107.472 32.176 106.688 32.176 105.552C32.176 104.384 31.472 103.584 30 103.584H26.384V107.472ZM26.384 112.976H30.128C31.936 112.976 32.64 112.048 32.64 110.72C32.64 109.376 31.776 108.496 30.416 108.496H26.384V112.976ZM40.8063 110.992V105.84H41.8463V114H40.8063V112.848H40.7743C40.3103 113.52 39.4303 114.192 37.9743 114.192C36.5182 114.192 35.3023 113.376 35.3023 111.568V105.84H36.3423V111.344C36.3423 112.384 36.8223 113.28 38.2303 113.28C39.7823 113.28 40.8063 112.192 40.8063 110.992ZM44.9565 104.208H43.6125V102.864H44.9565V104.208ZM44.8125 114H43.7725V105.84H44.8125V114ZM47.7656 114H46.7256V102.56H47.7656V114ZM52.8148 105.84V106.752H51.1668V111.904C51.1668 112.912 51.3908 113.152 52.1908 113.152C52.4468 113.152 52.5748 113.136 52.8148 113.12V114C52.4948 114.048 52.3028 114.064 52.0468 114.064C50.8628 114.064 50.1268 113.664 50.1268 111.888V106.752H48.9268V105.84H50.1268V103.12H51.1668V105.84H52.8148ZM60.1751 103.376C59.3911 103.376 59.1991 103.616 59.1991 104.624V105.84H60.8151V106.752H59.1991V114H58.1591V106.752H57.0071V105.84H58.1591V104.64C58.1591 102.864 58.8631 102.464 60.0311 102.464C60.2551 102.464 60.4471 102.48 60.8151 102.528V103.408C60.5271 103.392 60.3991 103.376 60.1751 103.376ZM65.1195 114.224C62.6715 114.224 61.1995 112.464 61.1995 109.936C61.1995 107.392 62.6715 105.632 65.1195 105.632C67.5675 105.632 69.0395 107.392 69.0395 109.936C69.0395 112.464 67.5675 114.224 65.1195 114.224ZM65.1195 113.312C67.0235 113.312 67.9515 111.808 67.9515 109.936C67.9515 108.048 67.0235 106.544 65.1195 106.544C63.2155 106.544 62.2875 108.048 62.2875 109.936C62.2875 111.808 63.2155 113.312 65.1195 113.312ZM73.8989 105.648C74.1869 105.648 74.4109 105.664 74.6029 105.696V106.72C74.4429 106.688 74.2669 106.672 74.1069 106.672C72.6349 106.672 71.5469 107.856 71.5469 109.44V114H70.5069V105.84H71.5469V107.504H71.5789C71.9949 106.432 72.7469 105.648 73.8989 105.648ZM85.971 109.552C85.971 109.776 85.971 110 85.955 110.128H79.491C79.507 111.776 80.387 113.328 82.307 113.328C83.987 113.328 84.643 112.176 84.803 111.504H85.859C85.459 112.992 84.339 114.224 82.291 114.224C79.795 114.224 78.403 112.4 78.403 109.92C78.403 107.312 79.939 105.632 82.291 105.632C84.643 105.632 85.971 107.28 85.971 109.552ZM79.491 109.216H84.867C84.867 107.76 83.923 106.528 82.243 106.528C80.659 106.528 79.571 107.696 79.491 109.216ZM90.6016 114H89.4176L86.4256 105.84H87.5776L90.0256 112.944H90.0416L92.4736 105.84H93.5936L90.6016 114ZM101.612 109.552C101.612 109.776 101.612 110 101.596 110.128H95.1316C95.1476 111.776 96.0276 113.328 97.9476 113.328C99.6276 113.328 100.284 112.176 100.444 111.504H101.5C101.1 112.992 99.9796 114.224 97.9316 114.224C95.4356 114.224 94.0436 112.4 94.0436 109.92C94.0436 107.312 95.5796 105.632 97.9316 105.632C100.284 105.632 101.612 107.28 101.612 109.552ZM95.1316 109.216H100.508C100.508 107.76 99.5636 106.528 97.8836 106.528C96.2996 106.528 95.2116 107.696 95.1316 109.216ZM106.461 105.648C106.749 105.648 106.973 105.664 107.165 105.696V106.72C107.005 106.688 106.829 106.672 106.669 106.672C105.197 106.672 104.109 107.856 104.109 109.44V114H103.069V105.84H104.109V107.504H104.141C104.557 106.432 105.309 105.648 106.461 105.648ZM108.993 116.864C108.737 116.864 108.545 116.848 108.209 116.8V115.904C108.449 115.936 108.577 115.952 108.833 115.952C109.601 115.952 110.225 115.456 110.673 113.952L107.377 105.84H108.529L111.185 112.64H111.217L113.745 105.84H114.865L111.601 114.24C110.801 116.272 110.081 116.864 108.993 116.864ZM119.198 114.224C116.75 114.224 115.278 112.464 115.278 109.936C115.278 107.392 116.75 105.632 119.198 105.632C121.646 105.632 123.118 107.392 123.118 109.936C123.118 112.464 121.646 114.224 119.198 114.224ZM119.198 113.312C121.102 113.312 122.03 111.808 122.03 109.936C122.03 108.048 121.102 106.544 119.198 106.544C117.294 106.544 116.366 108.048 116.366 109.936C116.366 111.808 117.294 113.312 119.198 113.312ZM128.457 105.648C129.913 105.648 131.129 106.464 131.129 108.272V114H130.089V108.496C130.089 107.456 129.609 106.56 128.201 106.56C126.649 106.56 125.625 107.648 125.625 108.848V114H124.585V105.84H125.625V107.008H125.657C126.121 106.336 127.001 105.648 128.457 105.648ZM140.127 109.552C140.127 109.776 140.127 110 140.111 110.128H133.647C133.663 111.776 134.543 113.328 136.463 113.328C138.143 113.328 138.799 112.176 138.959 111.504H140.015C139.615 112.992 138.495 114.224 136.447 114.224C133.951 114.224 132.559 112.4 132.559 109.92C132.559 107.312 134.095 105.632 136.447 105.632C138.799 105.632 140.127 107.28 140.127 109.552ZM133.647 109.216H139.023C139.023 107.76 138.079 106.528 136.399 106.528C134.815 106.528 133.727 107.696 133.647 109.216ZM142.487 114H141.143V112.656H142.487V114ZM148.743 114H147.575V102.56H148.743V114ZM154.196 105.648C154.484 105.648 154.708 105.664 154.9 105.696V106.72C154.74 106.688 154.564 106.672 154.404 106.672C152.932 106.672 151.844 107.856 151.844 109.44V114H150.804V105.84H151.844V107.504H151.876C152.292 106.432 153.044 105.648 154.196 105.648ZM159.399 105.648C159.687 105.648 159.911 105.664 160.103 105.696V106.72C159.943 106.688 159.767 106.672 159.607 106.672C158.135 106.672 157.047 107.856 157.047 109.44V114H156.007V105.84H157.047V107.504H157.079C157.495 106.432 158.247 105.648 159.399 105.648ZM167.893 109.552C167.893 109.776 167.893 110 167.877 110.128H161.413C161.429 111.776 162.309 113.328 164.229 113.328C165.909 113.328 166.565 112.176 166.725 111.504H167.781C167.381 112.992 166.261 114.224 164.213 114.224C161.717 114.224 160.325 112.4 160.325 109.92C160.325 107.312 161.861 105.632 164.213 105.632C166.565 105.632 167.893 107.28 167.893 109.552ZM161.413 109.216H166.789C166.789 107.76 165.845 106.528 164.165 106.528C162.581 106.528 161.493 107.696 161.413 109.216ZM172.359 114.208C170.071 114.208 168.823 112.96 168.775 111.328H169.863C169.927 112.448 170.663 113.296 172.375 113.296C173.927 113.296 174.455 112.576 174.455 111.776C174.455 110.576 173.239 110.448 172.103 110.176C170.599 109.792 169.079 109.424 169.079 107.84C169.079 106.512 170.135 105.648 171.975 105.648C174.103 105.648 175.095 106.784 175.239 108.128H174.151C174.007 107.408 173.575 106.56 171.991 106.56C170.823 106.56 170.167 107.008 170.167 107.776C170.167 108.8 171.271 108.944 172.503 109.248C174.039 109.616 175.559 110.048 175.559 111.744C175.559 113.232 174.375 114.208 172.359 114.208ZM180.722 105.632C182.722 105.632 184.322 107.232 184.322 109.92C184.322 112.592 182.722 114.192 180.722 114.192C179.298 114.192 178.45 113.488 177.97 112.624H177.938V116.832H176.898V105.84H177.938V107.152H177.97C178.45 106.368 179.298 105.632 180.722 105.632ZM180.61 113.28C182.306 113.28 183.234 111.744 183.234 109.92C183.234 108.08 182.306 106.544 180.61 106.544C179.042 106.544 177.938 107.856 177.938 109.92C177.938 111.968 179.042 113.28 180.61 113.28ZM192.94 109.552C192.94 109.776 192.94 110 192.924 110.128H186.46C186.476 111.776 187.356 113.328 189.276 113.328C190.956 113.328 191.612 112.176 191.772 111.504H192.828C192.428 112.992 191.308 114.224 189.26 114.224C186.764 114.224 185.372 112.4 185.372 109.92C185.372 107.312 186.908 105.632 189.26 105.632C191.612 105.632 192.94 107.28 192.94 109.552ZM186.46 109.216H191.836C191.836 107.76 190.892 106.528 189.212 106.528C187.628 106.528 186.54 107.696 186.46 109.216ZM197.854 114.208C195.518 114.208 193.95 112.48 193.95 109.92C193.95 107.376 195.518 105.648 197.854 105.648C199.838 105.648 201.182 106.976 201.358 108.704H200.27C200.206 107.792 199.55 106.56 197.854 106.56C195.854 106.56 195.038 108.256 195.038 109.92C195.038 111.6 195.854 113.312 197.854 113.312C199.566 113.312 200.206 112.08 200.27 111.088H201.358C201.246 112.848 199.838 114.208 197.854 114.208ZM205.846 105.84V106.752H204.198V111.904C204.198 112.912 204.422 113.152 205.222 113.152C205.478 113.152 205.606 113.136 205.846 113.12V114C205.526 114.048 205.334 114.064 205.078 114.064C203.894 114.064 203.158 113.664 203.158 111.888V106.752H201.958V105.84H203.158V103.12H204.198V105.84H205.846ZM208.378 104.208H207.034V102.864H208.378V104.208ZM208.234 114H207.194V105.84H208.234V114ZM213.524 114H212.34L209.348 105.84H210.5L212.948 112.944H212.964L215.396 105.84H216.516L213.524 114ZM224.534 109.552C224.534 109.776 224.534 110 224.517 110.128H218.054C218.07 111.776 218.95 113.328 220.87 113.328C222.55 113.328 223.206 112.176 223.366 111.504H224.422C224.022 112.992 222.902 114.224 220.854 114.224C218.358 114.224 216.965 112.4 216.965 109.92C216.965 107.312 218.502 105.632 220.854 105.632C223.206 105.632 224.534 107.28 224.534 109.552ZM218.054 109.216H223.43C223.43 107.76 222.486 106.528 220.806 106.528C219.222 106.528 218.134 107.696 218.054 109.216ZM232.963 114.224C230.515 114.224 229.043 112.464 229.043 109.936C229.043 107.392 230.515 105.632 232.963 105.632C235.411 105.632 236.883 107.392 236.883 109.936C236.883 112.464 235.411 114.224 232.963 114.224ZM232.963 113.312C234.867 113.312 235.795 111.808 235.795 109.936C235.795 108.048 234.867 106.544 232.963 106.544C231.059 106.544 230.131 108.048 230.131 109.936C230.131 111.808 231.059 113.312 232.963 113.312ZM240.675 103.376C239.891 103.376 239.699 103.616 239.699 104.624V105.84H241.315V106.752H239.699V114H238.659V106.752H237.507V105.84H238.659V104.64C238.659 102.864 239.363 102.464 240.531 102.464C240.755 102.464 240.947 102.48 241.315 102.528V103.408C241.027 103.392 240.899 103.376 240.675 103.376ZM247.809 114.208C246.177 114.208 245.137 113.296 245.137 111.936C245.137 110.176 246.385 109.616 248.497 109.248C249.841 109.008 250.705 108.912 250.705 107.936C250.705 107.104 250.161 106.544 248.849 106.544C247.265 106.544 246.705 107.104 246.625 108.304H245.521C245.601 106.864 246.513 105.632 248.881 105.632C250.385 105.632 251.713 106.272 251.713 108.224V112.304C251.713 112.96 251.809 113.264 252.177 113.264C252.241 113.264 252.305 113.264 252.401 113.248V114C252.225 114.032 252.049 114.064 251.857 114.064C251.169 114.064 250.769 113.792 250.705 112.768H250.673C250.113 113.696 249.137 114.208 247.809 114.208ZM247.937 113.296C249.601 113.296 250.705 112.416 250.705 110.944V109.424C250.465 109.76 249.601 109.952 248.625 110.112C247.041 110.4 246.225 110.8 246.225 111.84C246.225 112.784 246.753 113.296 247.937 113.296ZM259.662 107.12V105.84H260.702V113.488C260.702 115.808 259.262 116.928 257.022 116.928C254.814 116.928 253.646 115.856 253.518 114.432H254.606C254.766 115.312 255.454 116.016 257.038 116.016C258.686 116.016 259.662 115.296 259.662 113.632V112.112H259.63C259.15 112.96 258.254 113.616 256.878 113.616C254.926 113.616 253.294 112.336 253.294 109.616C253.294 106.928 254.926 105.648 256.878 105.648C258.254 105.648 259.15 106.304 259.63 107.12H259.662ZM257.022 112.704C258.526 112.704 259.662 111.712 259.662 109.616C259.662 107.552 258.526 106.56 257.022 106.56C255.342 106.56 254.382 107.776 254.382 109.616C254.382 111.488 255.342 112.704 257.022 112.704ZM269.737 109.552C269.737 109.776 269.737 110 269.721 110.128H263.257C263.273 111.776 264.153 113.328 266.073 113.328C267.753 113.328 268.409 112.176 268.569 111.504H269.625C269.225 112.992 268.105 114.224 266.057 114.224C263.561 114.224 262.169 112.4 262.169 109.92C262.169 107.312 263.705 105.632 266.057 105.632C268.409 105.632 269.737 107.28 269.737 109.552ZM263.257 109.216H268.633C268.633 107.76 267.689 106.528 266.009 106.528C264.425 106.528 263.337 107.696 263.257 109.216ZM270.753 115.936V115.248C271.265 115.056 271.425 114.768 271.409 114H270.753V112.656H272.097V114C272.097 114.912 271.841 115.6 270.753 115.936ZM27.968 138.208C25.68 138.208 24.432 136.96 24.384 135.328H25.472C25.536 136.448 26.272 137.296 27.984 137.296C29.536 137.296 30.064 136.576 30.064 135.776C30.064 134.576 28.848 134.448 27.712 134.176C26.208 133.792 24.688 133.424 24.688 131.84C24.688 130.512 25.744 129.648 27.584 129.648C29.712 129.648 30.704 130.784 30.848 132.128H29.76C29.616 131.408 29.184 130.56 27.6 130.56C26.432 130.56 25.776 131.008 25.776 131.776C25.776 132.8 26.88 132.944 28.112 133.248C29.648 133.616 31.168 134.048 31.168 135.744C31.168 137.232 29.984 138.208 27.968 138.208ZM34.7469 138.208C33.1149 138.208 32.0749 137.296 32.0749 135.936C32.0749 134.176 33.3229 133.616 35.4349 133.248C36.7789 133.008 37.6429 132.912 37.6429 131.936C37.6429 131.104 37.0989 130.544 35.7869 130.544C34.2029 130.544 33.6429 131.104 33.5629 132.304H32.4589C32.5389 130.864 33.4509 129.632 35.8189 129.632C37.3229 129.632 38.6509 130.272 38.6509 132.224V136.304C38.6509 136.96 38.7469 137.264 39.1149 137.264C39.1789 137.264 39.2429 137.264 39.3389 137.248V138C39.1629 138.032 38.9869 138.064 38.7949 138.064C38.1069 138.064 37.7069 137.792 37.6429 136.768H37.6109C37.0509 137.696 36.0749 138.208 34.7469 138.208ZM34.8749 137.296C36.5389 137.296 37.6429 136.416 37.6429 134.944V133.424C37.4029 133.76 36.5389 133.952 35.5629 134.112C33.9789 134.4 33.1629 134.8 33.1629 135.84C33.1629 136.784 33.6909 137.296 34.8749 137.296ZM41.7656 138H40.7256V126.56H41.7656V138ZM45.9188 138.208C44.2868 138.208 43.2467 137.296 43.2467 135.936C43.2467 134.176 44.4948 133.616 46.6068 133.248C47.9508 133.008 48.8148 132.912 48.8148 131.936C48.8148 131.104 48.2708 130.544 46.9588 130.544C45.3748 130.544 44.8148 131.104 44.7348 132.304H43.6308C43.7108 130.864 44.6228 129.632 46.9908 129.632C48.4948 129.632 49.8228 130.272 49.8228 132.224V136.304C49.8228 136.96 49.9188 137.264 50.2868 137.264C50.3508 137.264 50.4148 137.264 50.5108 137.248V138C50.3348 138.032 50.1588 138.064 49.9668 138.064C49.2788 138.064 48.8788 137.792 48.8148 136.768H48.7828C48.2228 137.696 47.2468 138.208 45.9188 138.208ZM46.0468 137.296C47.7108 137.296 48.8148 136.416 48.8148 134.944V133.424C48.5748 133.76 47.7108 133.952 46.7348 134.112C45.1508 134.4 44.3348 134.8 44.3348 135.84C44.3348 136.784 44.8628 137.296 46.0468 137.296ZM55.2895 129.648C55.5775 129.648 55.8015 129.664 55.9935 129.696V130.72C55.8335 130.688 55.6575 130.672 55.4975 130.672C54.0255 130.672 52.9375 131.856 52.9375 133.44V138H51.8975V129.84H52.9375V131.504H52.9695C53.3855 130.432 54.1375 129.648 55.2895 129.648ZM57.8206 140.864C57.5646 140.864 57.3726 140.848 57.0366 140.8V139.904C57.2766 139.936 57.4046 139.952 57.6606 139.952C58.4286 139.952 59.0526 139.456 59.5006 137.952L56.2046 129.84H57.3566L60.0126 136.64H60.0446L62.5726 129.84H63.6926L60.4286 138.24C59.6286 140.272 58.9086 140.864 57.8206 140.864ZM71.4008 138.224C68.9528 138.224 67.4808 136.464 67.4808 133.936C67.4808 131.392 68.9528 129.632 71.4008 129.632C73.8488 129.632 75.3208 131.392 75.3208 133.936C75.3208 136.464 73.8488 138.224 71.4008 138.224ZM71.4008 137.312C73.3048 137.312 74.2328 135.808 74.2328 133.936C74.2328 132.048 73.3048 130.544 71.4008 130.544C69.4968 130.544 68.5688 132.048 68.5688 133.936C68.5688 135.808 69.4968 137.312 71.4008 137.312ZM80.1801 129.648C80.4681 129.648 80.6921 129.664 80.8841 129.696V130.72C80.7241 130.688 80.5481 130.672 80.3881 130.672C78.9161 130.672 77.8281 131.856 77.8281 133.44V138H76.7881V129.84H77.8281V131.504H77.8601C78.2761 130.432 79.0281 129.648 80.1801 129.648ZM87.8114 138H86.6594L84.0674 129.84H85.2194L87.2514 136.816H87.2834L89.1874 129.84H90.3554L92.2594 136.816H92.2914L94.3394 129.84H95.4594L92.8514 138H91.6834L89.7634 131.104H89.7314L87.8114 138ZM103.565 133.552C103.565 133.776 103.565 134 103.549 134.128H97.0848C97.1008 135.776 97.9808 137.328 99.9008 137.328C101.581 137.328 102.237 136.176 102.397 135.504H103.453C103.053 136.992 101.933 138.224 99.8848 138.224C97.3888 138.224 95.9967 136.4 95.9967 133.92C95.9967 131.312 97.5328 129.632 99.8848 129.632C102.237 129.632 103.565 131.28 103.565 133.552ZM97.0848 133.216H102.461C102.461 131.76 101.517 130.528 99.8368 130.528C98.2528 130.528 97.1648 131.696 97.0848 133.216ZM107.263 138.208C105.631 138.208 104.59 137.296 104.59 135.936C104.59 134.176 105.839 133.616 107.951 133.248C109.295 133.008 110.159 132.912 110.159 131.936C110.159 131.104 109.615 130.544 108.303 130.544C106.719 130.544 106.159 131.104 106.079 132.304H104.975C105.055 130.864 105.967 129.632 108.335 129.632C109.839 129.632 111.167 130.272 111.167 132.224V136.304C111.167 136.96 111.263 137.264 111.631 137.264C111.695 137.264 111.759 137.264 111.855 137.248V138C111.679 138.032 111.503 138.064 111.311 138.064C110.623 138.064 110.223 137.792 110.159 136.768H110.127C109.567 137.696 108.591 138.208 107.263 138.208ZM107.391 137.296C109.055 137.296 110.159 136.416 110.159 134.944V133.424C109.919 133.76 109.055 133.952 108.079 134.112C106.495 134.4 105.679 134.8 105.679 135.84C105.679 136.784 106.207 137.296 107.391 137.296ZM114.281 138H113.241V126.56H114.281V138ZM119.33 129.84V130.752H117.682V135.904C117.682 136.912 117.906 137.152 118.706 137.152C118.962 137.152 119.09 137.136 119.33 137.12V138C119.01 138.048 118.818 138.064 118.562 138.064C117.378 138.064 116.642 137.664 116.642 135.888V130.752H115.442V129.84H116.642V127.12H117.682V129.84H119.33ZM124.551 129.648C126.007 129.648 127.223 130.464 127.223 132.272V138H126.183V132.496C126.183 131.456 125.703 130.56 124.295 130.56C122.743 130.56 121.719 131.648 121.719 132.848V138H120.679V126.56H121.719V131.008H121.751C122.215 130.336 123.095 129.648 124.551 129.648ZM130.253 138H128.909V136.656H130.253V138Z" fill="#011716"/>
</g>
<path d="M16 0.5H286C294.56 0.5 301.5 7.43959 301.5 16V232C301.5 240.56 294.56 247.5 286 247.5H16C7.43959 247.5 0.5 240.56 0.5 232V16C0.5 7.43959 7.43959 0.5 16 0.5Z" stroke="url(#paint0_linear_6020_1034)"/>
<defs>
<linearGradient id="paint0_linear_6020_1034" x1="313.185" y1="-11.1045" x2="-57.852" y2="150.334" gradientUnits="userSpaceOnUse">
<stop stop-color="#F6F2F8"/>
<stop offset="1" stop-color="white"/>
</linearGradient>
<clipPath id="clip0_6020_1034">
<path d="M0 16C0 7.16344 7.16344 0 16 0H286C294.837 0 302 7.16344 302 16V232C302 240.837 294.837 248 286 248H16C7.16344 248 0 240.837 0 232V16Z" fill="white"/>
</clipPath>
</defs>
</svg>
