<svg width="177" height="48" viewBox="0 0 177 48" fill="none" xmlns="http://www.w3.org/2000/svg">
<path fill-rule="evenodd" clip-rule="evenodd" d="M29.8187 16.4865C33.9377 21.3953 33.3711 28.5607 28.6739 32.5022C26.7537 34.1134 24.4346 34.9489 22.0763 35.0436C21.2807 35.0756 20.6618 35.7464 20.6938 36.5419C20.7257 37.3376 21.3966 37.9565 22.1921 37.9245C25.1585 37.8053 28.0961 36.7507 30.5271 34.7109C36.5026 29.6968 37.1202 20.7027 32.0273 14.6332C26.9345 8.5638 17.9697 7.6102 11.9942 12.6242C9.56329 14.664 8.01456 17.3738 7.38207 20.2746C7.2124 21.0525 7.70543 21.8206 8.48342 21.9901C9.2613 22.1598 10.0294 21.6668 10.199 20.8888C10.7019 18.5829 11.9274 16.4441 13.8475 14.8328C18.5448 10.8914 25.6997 11.5776 29.8187 16.4865ZM23.647 26.9085C25.1718 25.6291 25.3707 23.3559 24.0913 21.8311C22.8118 20.3063 20.5385 20.1074 19.0138 21.3868C17.4891 22.6662 17.2902 24.9395 18.5696 26.4643C19.849 27.989 22.1222 28.1879 23.647 26.9085ZM24.9058 28.434C27.2545 26.6153 27.6909 23.0831 25.7067 20.5208C23.7226 17.9585 20.1936 17.4967 17.8448 19.3155C16.7595 20.1559 16.0882 21.3467 15.8676 22.6457C15.871 22.7137 15.8697 22.783 15.8634 22.8528C15.7906 23.6457 15.0889 24.2295 14.2961 24.1567C12.9709 24.035 11.6351 24.3856 10.5393 25.2341C8.19055 27.0529 7.75427 30.5851 9.73838 33.1474C11.7226 35.7097 15.2515 36.1715 17.6002 34.3528C18.6857 33.5122 19.3569 32.3215 19.5775 31.0224C19.574 30.9544 19.5753 30.8852 19.5818 30.8153C19.6545 30.0225 20.3562 29.4388 21.1489 29.5115C22.4742 29.6331 23.81 29.2826 24.9058 28.434ZM22.2178 32.3993C23.7887 32.2942 25.3404 31.744 26.6711 30.7137C30.3656 27.8528 30.8768 22.4883 27.9864 18.7556C25.0959 15.0229 19.7742 14.1749 16.0796 17.0358C14.6478 18.1445 13.6902 19.6404 13.2274 21.2688C11.6564 21.3739 10.1046 21.9241 8.77403 22.9544C5.07949 25.8154 4.56832 31.1799 7.45876 34.9126C10.3492 38.6454 15.6709 39.4932 19.3654 36.6323C20.7973 35.5236 21.755 34.0277 22.2178 32.3993Z" fill="#004643"/>
<path d="M48.0744 35V12.6H57.2904C59.2744 12.6 60.9704 12.92 62.3784 13.56C63.8077 14.2 64.9064 15.1173 65.6744 16.312C66.4424 17.5067 66.8264 18.9253 66.8264 20.568C66.8264 22.2107 66.4424 23.6293 65.6744 24.824C64.9064 25.9973 63.8077 26.904 62.3784 27.544C60.9704 28.1627 59.2744 28.472 57.2904 28.472H50.3784L52.2344 26.584V35H48.0744ZM62.7304 35L57.0664 26.872H61.5144L67.2104 35H62.7304ZM52.2344 27.032L50.3784 25.048H57.0984C58.9331 25.048 60.3091 24.6533 61.2264 23.864C62.1651 23.0747 62.6344 21.976 62.6344 20.568C62.6344 19.1387 62.1651 18.04 61.2264 17.272C60.3091 16.504 58.9331 16.12 57.0984 16.12H50.3784L52.2344 14.072V27.032ZM74.0407 21.912H85.1767V25.336H74.0407V21.912ZM74.3607 31.512H87.0007V35H70.2007V12.6H86.5527V16.088H74.3607V31.512ZM100.726 35.32C99.0195 35.32 97.4302 35.0427 95.9582 34.488C94.5075 33.912 93.2382 33.112 92.1502 32.088C91.0835 31.0427 90.2515 29.816 89.6542 28.408C89.0568 27 88.7582 25.464 88.7582 23.8C88.7582 22.136 89.0568 20.6 89.6542 19.192C90.2515 17.784 91.0942 16.568 92.1822 15.544C93.2702 14.4987 94.5395 13.6987 95.9902 13.144C97.4408 12.568 99.0302 12.28 100.758 12.28C102.593 12.28 104.267 12.6 105.782 13.24C107.297 13.8587 108.577 14.7867 109.622 16.024L106.934 18.552C106.123 17.6773 105.217 17.0267 104.214 16.6C103.211 16.152 102.123 15.928 100.95 15.928C99.7768 15.928 98.6995 16.12 97.7182 16.504C96.7582 16.888 95.9155 17.432 95.1902 18.136C94.4862 18.84 93.9315 19.672 93.5262 20.632C93.1422 21.592 92.9502 22.648 92.9502 23.8C92.9502 24.952 93.1422 26.008 93.5262 26.968C93.9315 27.928 94.4862 28.76 95.1902 29.464C95.9155 30.168 96.7582 30.712 97.7182 31.096C98.6995 31.48 99.7768 31.672 100.95 31.672C102.123 31.672 103.211 31.4587 104.214 31.032C105.217 30.584 106.123 29.912 106.934 29.016L109.622 31.576C108.577 32.792 107.297 33.72 105.782 34.36C104.267 35 102.582 35.32 100.726 35.32ZM112.328 35V12.6H121.544C123.528 12.6 125.224 12.92 126.632 13.56C128.061 14.2 129.16 15.1173 129.928 16.312C130.696 17.5067 131.08 18.9253 131.08 20.568C131.08 22.2107 130.696 23.6293 129.928 24.824C129.16 25.9973 128.061 26.904 126.632 27.544C125.224 28.1627 123.528 28.472 121.544 28.472H114.632L116.488 26.584V35H112.328ZM126.984 35L121.32 26.872H125.768L131.464 35H126.984ZM116.488 27.032L114.632 25.048H121.352C123.187 25.048 124.563 24.6533 125.48 23.864C126.419 23.0747 126.888 21.976 126.888 20.568C126.888 19.1387 126.419 18.04 125.48 17.272C124.563 16.504 123.187 16.12 121.352 16.12H114.632L116.488 14.072V27.032ZM144.95 35.32C143.201 35.32 141.59 35.032 140.118 34.456C138.646 33.88 137.366 33.08 136.278 32.056C135.19 31.0107 134.348 29.7947 133.75 28.408C133.153 27 132.854 25.464 132.854 23.8C132.854 22.136 133.153 20.6107 133.75 19.224C134.348 17.816 135.19 16.6 136.278 15.576C137.366 14.5307 138.646 13.72 140.118 13.144C141.59 12.568 143.19 12.28 144.918 12.28C146.668 12.28 148.268 12.568 149.718 13.144C151.19 13.72 152.47 14.5307 153.558 15.576C154.646 16.6 155.489 17.816 156.086 19.224C156.684 20.6107 156.982 22.136 156.982 23.8C156.982 25.464 156.684 27 156.086 28.408C155.489 29.816 154.646 31.032 153.558 32.056C152.47 33.08 151.19 33.88 149.718 34.456C148.268 35.032 146.678 35.32 144.95 35.32ZM144.918 31.672C146.049 31.672 147.094 31.48 148.054 31.096C149.014 30.712 149.846 30.168 150.55 29.464C151.254 28.7387 151.798 27.9067 152.182 26.968C152.588 26.008 152.79 24.952 152.79 23.8C152.79 22.648 152.588 21.6027 152.182 20.664C151.798 19.704 151.254 18.872 150.55 18.168C149.846 17.4427 149.014 16.888 148.054 16.504C147.094 16.12 146.049 15.928 144.918 15.928C143.788 15.928 142.742 16.12 141.782 16.504C140.844 16.888 140.012 17.4427 139.286 18.168C138.582 18.872 138.028 19.704 137.622 20.664C137.238 21.6027 137.046 22.648 137.046 23.8C137.046 24.9307 137.238 25.976 137.622 26.936C138.028 27.896 138.582 28.7387 139.286 29.464C139.99 30.168 140.822 30.712 141.782 31.096C142.742 31.48 143.788 31.672 144.918 31.672ZM164.343 35V16.12H156.919V12.6H175.927V16.12H168.503V35H164.343Z" fill="#011716"/>
</svg>
