<svg xmlns="http://www.w3.org/2000/svg" width="100%" viewBox="0 0 64 64" fill="none" class="feature-icon"><g clip-path="url(#clip0_6020_1044)"><path d="M45.333 8.90703C49.355 11.2293 52.7008 14.5618 55.0392 18.5745C57.3775 22.5872 58.6273 27.1411 58.6648 31.7853C58.7023 36.4295 57.5263 41.0029 55.2531 45.0529C52.9799 49.1029 49.6883 52.4889 45.7043 54.8759C41.7203 57.2628 37.182 58.5679 32.5386 58.6619C27.8952 58.7558 23.3078 57.6355 19.2305 55.4117C15.1532 53.1879 11.7273 49.9378 9.29212 45.9831C6.85691 42.0284 5.49677 37.5063 5.34634 32.8644L5.33301 32.0004L5.34634 31.1364C5.49568 26.531 6.8358 22.0429 9.23605 18.1097C11.6363 14.1764 15.0148 10.9322 19.0421 8.69338C23.0694 6.45453 27.6081 5.29742 32.2157 5.33487C36.8233 5.37231 41.3426 6.60302 45.333 8.90703ZM42.5303 27.1577C42.3238 26.5378 41.8969 26.0154 41.3306 25.6895C40.7643 25.3635 40.0981 25.2569 39.4583 25.3897L39.157 25.4697L31.9997 27.8564L24.8423 25.4697L24.541 25.3897C23.9019 25.2582 23.2367 25.3655 22.6714 25.6915C22.1061 26.0174 21.68 26.5393 21.4736 27.1583C21.2673 27.7774 21.2951 28.4506 21.5517 29.0505C21.8084 29.6505 22.2761 30.1355 22.8663 30.4137L23.157 30.531L29.333 32.587V35.1897L24.4477 42.523L24.2877 42.7897C24.0173 43.3208 23.9326 43.9272 24.0472 44.512C24.1618 45.0969 24.4689 45.6265 24.9197 46.0164L25.1863 46.219L25.4557 46.379C25.9868 46.6494 26.5931 46.7341 27.178 46.6195C27.7629 46.5049 28.2925 46.1978 28.6823 45.747L28.885 45.4804L31.9997 40.8084L35.1143 45.4804L35.301 45.7284C35.7241 46.2271 36.3157 46.5529 36.9633 46.6439C37.611 46.7349 38.2695 46.5848 38.8136 46.222C39.3578 45.8592 39.7497 45.3091 39.9148 44.6763C40.0798 44.0435 40.0066 43.3721 39.709 42.7897L39.5517 42.523L34.6663 35.1897V32.5844L40.8423 30.5284L41.133 30.411C41.7242 30.1336 42.1931 29.6488 42.4506 29.0487C42.7082 28.4485 42.7365 27.7747 42.5303 27.155V27.1577ZM31.9997 16.0004C30.9388 16.0004 29.9214 16.4218 29.1712 17.1719C28.4211 17.9221 27.9997 18.9395 27.9997 20.0004C27.9997 21.0612 28.4211 22.0786 29.1712 22.8288C29.9214 23.5789 30.9388 24.0004 31.9997 24.0004C33.0605 24.0004 34.078 23.5789 34.8281 22.8288C35.5782 22.0786 35.9997 21.0612 35.9997 20.0004C35.9997 18.9395 35.5782 17.9221 34.8281 17.1719C34.078 16.4218 33.0605 16.0004 31.9997 16.0004Z" fill="currentColor"></path></g></svg>